<?xml version="1.0" standalone="no"?><!DOCTYPE svg PUBLIC "-//W3C//DTD SVG 1.1//EN" "http://www.w3.org/Graphics/SVG/1.1/DTD/svg11.dtd"><svg t="1563103181933" class="icon" viewBox="0 0 1024 1024" version="1.1" xmlns="http://www.w3.org/2000/svg" p-id="3623" xmlns:xlink="http://www.w3.org/1999/xlink" width="144" height="144"><defs><style type="text/css"></style></defs><path d="M512 224a208 208 0 0 1 149.44 352c-35.04 36.16-68.48 70.72-80 128h-138.08c-11.04-52.8-40.96-87.2-80-126.56a208 208 0 0 1 124.48-352C496 224 504 224 512 224m0-48a260.48 260.48 0 0 0-29.28 1.6A256 256 0 0 0 257.6 403.2a253.92 253.92 0 0 0 71.84 208C374.72 657.12 400 688 400 752h224c0-65.28 26.4-96 72-142.24A256 256 0 0 0 512 176zM600 800h-176a24 24 0 0 0 0 48h176a24 24 0 0 0 0-48z" fill="#229fe8" p-id="3624"></path><path d="M520.8 451.84H608L464 576l39.2-86.4H416l144-124.8z m0 0" fill="#229fe8" p-id="3625"></path></svg>